<svg width="86" height="84" viewBox="0 0 86 84" fill="none" xmlns="http://www.w3.org/2000/svg">
<path d="M49.2085 4.52541L57.0467 0H85.58V83.7233H57.3147C57.1391 83.7233 56.9667 83.6771 56.8147 83.5893L26.3765 66.0158L26.3765 17.7075L30.0111 15.609L36.4111 19.3041L32.7765 21.4025V62.3208L58.7616 77.3233H79.18V6.4H58.7616L55.6085 8.22046L49.2085 4.52541Z" fill="#6BBDFE"/>
<path fill-rule="evenodd" clip-rule="evenodd" d="M52.8035 62.3208V21.4025L26.8184 6.4H6.4V77.3233H26.8184L29.9813 75.4972L36.3813 79.1923L28.5333 83.7233H0V0H28.5333L59.2035 17.7075V66.0158L55.5786 68.1087L49.1786 64.4136L52.8035 62.3208Z" fill="#4598FA"/>
</svg>
