<svg width="32" height="32" viewBox="0 0 32 32" xmlns="http://www.w3.org/2000/svg">
<path fill-rule="evenodd" clip-rule="evenodd" d="M5.65401 12.75C5.12148 12.75 4.75 13.1536 4.75 13.5788V24.4212C4.75 24.8464 5.12148 25.25 5.65401 25.25H24.346C24.8785 25.25 25.25 24.8464 25.25 24.4212V13.5788C25.25 13.1536 24.8785 12.75 24.346 12.75H5.65401ZM3.25 13.5788C3.25 12.2602 4.35957 11.25 5.65401 11.25H24.346C25.6404 11.25 26.75 12.2602 26.75 13.5788V24.4212C26.75 25.7398 25.6404 26.75 24.346 26.75H5.65401C4.35957 26.75 3.25 25.7398 3.25 24.4212V13.5788Z" fill="currentColor"/>
<path fill-rule="evenodd" clip-rule="evenodd" d="M8.25 6C8.25 5.58579 8.58579 5.25 9 5.25H21.25C21.6642 5.25 22 5.58579 22 6C22 6.41421 21.6642 6.75 21.25 6.75H9C8.58579 6.75 8.25 6.41421 8.25 6Z" fill="currentColor"/>
<path fill-rule="evenodd" clip-rule="evenodd" d="M6.25 9C6.25 8.58579 6.58579 8.25 7 8.25H22.75C23.1642 8.25 23.5 8.58579 23.5 9C23.5 9.41421 23.1642 9.75 22.75 9.75H7C6.58579 9.75 6.25 9.41421 6.25 9Z" fill="currentColor"/>
<path fill-rule="evenodd" clip-rule="evenodd" d="M7.76225 22C7.92793 22 8.06225 21.8657 8.06225 21.7V18.8495C8.06225 18.5465 8.46021 18.4345 8.61822 18.693L10.5518 21.8565C10.6063 21.9456 10.7032 22 10.8077 22H11.4453C11.611 22 11.7453 21.8657 11.7453 21.7V16.3C11.7453 16.1343 11.611 16 11.4453 16H10.983C10.8174 16 10.683 16.1343 10.683 16.3V19.1369C10.683 19.4393 10.2863 19.5517 10.1277 19.2943L8.18496 16.1426C8.13034 16.054 8.03368 16 7.92958 16H7.3C7.13431 16 7 16.1343 7 16.3V21.7C7 21.8657 7.13431 22 7.3 22H7.76225ZM13.5181 22C13.6838 22 13.8181 21.8657 13.8181 21.7V19.7947C13.8181 19.629 13.9524 19.4947 14.1181 19.4947H16.3914C16.5571 19.4947 16.6914 19.3604 16.6914 19.1947V18.8053C16.6914 18.6396 16.5571 18.5053 16.3914 18.5053H14.1181C13.9524 18.5053 13.8181 18.371 13.8181 18.2053V17.2894C13.8181 17.1237 13.9524 16.9894 14.1181 16.9894H16.7745C16.9402 16.9894 17.0745 16.8551 17.0745 16.6894V16.3C17.0745 16.1343 16.9402 16 16.7745 16H13.0123C12.8466 16 12.7123 16.1343 12.7123 16.3V21.7C12.7123 21.8657 12.8466 22 13.0123 22H13.5181ZM20.7757 22C20.9414 22 21.0757 21.8657 21.0757 21.7V17.2639C21.0757 17.0982 21.21 16.9639 21.3757 16.9639H22.7C22.8657 16.9639 23 16.8296 23 16.6639V16.3C23 16.1343 22.8657 16 22.7 16H18.3414C18.1757 16 18.0414 16.1343 18.0414 16.3V16.6639C18.0414 16.8296 18.1757 16.9639 18.3414 16.9639H19.67C19.8356 16.9639 19.97 17.0982 19.97 17.2639V21.7C19.97 21.8657 20.1043 22 20.27 22H20.7757Z" fill="currentColor"/>
</svg>
