<svg width="32" height="32" viewBox="0 0 32 32" xmlns="http://www.w3.org/2000/svg">
<path fill-rule="evenodd" clip-rule="evenodd" d="M22.2724 10.4809C20.3412 11.7519 17.1342 12.4237 14.0319 12.4237C10.9374 12.4237 7.71882 11.7557 5.81868 10.4466V14.645C5.81868 15.8054 8.58746 17.4008 13.1866 17.5802C13.5052 17.5924 13.793 17.7711 13.9415 18.0488C14.0901 18.3266 14.0768 18.6612 13.9066 18.9267C13.7365 19.1922 13.4354 19.3482 13.1168 19.3359C10.3247 19.2328 7.54432 18.5725 5.80317 17.4275V21.6145C5.80317 22.7748 8.57195 24.3702 13.1711 24.5496C13.4897 24.5633 13.7768 24.7432 13.9241 25.0216C14.0714 25.3 14.0566 25.6347 13.8853 25.8995C13.714 26.1643 13.4122 26.319 13.0935 26.3054C8.52929 26.0954 3.99997 24.4695 3.99997 21.6031V7.71374C3.99997 4.65267 9.16913 3 14.0319 3C18.8948 3 24.0639 4.66031 24.0639 7.71374V11.1145C24.0639 11.6014 23.6629 11.9962 23.1681 11.9962C22.6734 11.9962 22.2724 11.6014 22.2724 11.1145V10.4809ZM22.2723 7.71376C22.2723 6.48093 19.139 4.76337 14.0319 4.76337C8.9248 4.76337 5.78763 6.4733 5.78763 7.70612C5.78763 8.93895 8.94032 10.6565 14.0319 10.6565C19.1235 10.6565 22.2723 8.94658 22.2723 7.71376ZM22.0474 13.3893C17.6073 13.3893 15.2845 15.0725 15.2845 16.7328V25.6565C15.2845 27.3168 17.6112 29 22.0474 29C26.4837 29 28.7794 27.3435 28.8181 25.6947V16.7328C28.8181 15.0687 26.4914 13.3893 22.0474 13.3893ZM27.0266 16.7328C27.0266 16.2557 25.332 15.1488 22.0475 15.1488C18.7668 15.1488 17.0722 16.2595 17.0722 16.7328C17.0722 17.2061 18.7668 18.313 22.0475 18.313C25.3281 18.313 27.0266 17.2099 27.0266 16.7328ZM22.0475 27.2367C18.7668 27.2367 17.0722 26.1298 17.0722 25.6565V23.5267C18.2084 24.1336 19.8759 24.5344 22.0475 24.5344C24.2191 24.5344 25.8904 24.1527 27.0266 23.5267V25.6565C27.0305 26.1298 25.3281 27.2367 22.0475 27.2367ZM17.0722 21.1909C17.0722 21.668 18.7668 22.7748 22.0475 22.7748C25.3281 22.7787 27.0305 21.668 27.0266 21.1909V19.0535C25.8904 19.668 24.2191 20.0649 22.0475 20.0649C19.8759 20.0649 18.2084 19.6603 17.0722 19.0535V21.1909Z" fill="currentColor"/>
</svg>
