<svg width="111" height="111" viewBox="0 0 111 111" fill="none" xmlns="http://www.w3.org/2000/svg">
<path fill-rule="evenodd" clip-rule="evenodd" d="M56.043 18.4752L40.043 9.2376L56.043 0L72.043 9.2376L56.043 18.4752Z" fill="#236FFF"/>
<path fill-rule="evenodd" clip-rule="evenodd" d="M56.043 18.4752L40.043 9.2376L56.043 0L72.043 9.2376L56.043 18.4752Z" fill="#205BBC" fill-opacity="0.821786"/>
<path fill-rule="evenodd" clip-rule="evenodd" d="M72.043 9.23755V27.7128L56.043 36.9504L56.043 18.4752L72.043 9.23755Z" fill="#0194EE"/>
<path fill-rule="evenodd" clip-rule="evenodd" d="M40.043 9.23755V27.7128L56.043 36.9504L56.043 18.4752L40.043 9.23755Z" fill="#0ACDC4"/>
<path fill-rule="evenodd" clip-rule="evenodd" d="M40.043 9.23755V27.7128L56.043 36.9504L56.043 18.4752L40.043 9.23755Z" fill="#3DCE9D" fill-opacity="0.6431"/>
<path fill-rule="evenodd" clip-rule="evenodd" d="M56.043 92.3265L40.043 83.0889L56.043 73.8513L72.043 83.0889L56.043 92.3265Z" fill="#236FFF"/>
<path fill-rule="evenodd" clip-rule="evenodd" d="M56.043 92.3265L40.043 83.0889L56.043 73.8513L72.043 83.0889L56.043 92.3265Z" fill="#205BBC" fill-opacity="0.821786"/>
<path fill-rule="evenodd" clip-rule="evenodd" d="M72.043 83.0889V101.564L56.043 110.802L56.043 92.3265L72.043 83.0889Z" fill="#0194EE"/>
<path fill-rule="evenodd" clip-rule="evenodd" d="M40.043 83.0889V101.564L56.043 110.802L56.043 92.3265L40.043 83.0889Z" fill="#0ACDC4"/>
<path fill-rule="evenodd" clip-rule="evenodd" d="M40.043 83.0889V101.564L56.043 110.802L56.043 92.3265L40.043 83.0889Z" fill="#3DCE9D" fill-opacity="0.6431"/>
<path fill-rule="evenodd" clip-rule="evenodd" d="M24 36.9752L8 27.7376L24 18.5L40 27.7376L24 36.9752Z" fill="#236FFF"/>
<path fill-rule="evenodd" clip-rule="evenodd" d="M24 36.9752L8 27.7376L24 18.5L40 27.7376L24 36.9752Z" fill="#205BBC" fill-opacity="0.821786"/>
<path fill-rule="evenodd" clip-rule="evenodd" d="M40 27.7375V46.2128L24 55.4504L24 36.9752L40 27.7375Z" fill="#0194EE"/>
<path fill-rule="evenodd" clip-rule="evenodd" d="M8 27.7375V46.2128L24 55.4504L24 36.9752L8 27.7375Z" fill="#0ACDC4"/>
<path fill-rule="evenodd" clip-rule="evenodd" d="M8 27.7375V46.2128L24 55.4504L24 36.9752L8 27.7375Z" fill="#3DCE9D" fill-opacity="0.6431"/>
<path fill-rule="evenodd" clip-rule="evenodd" d="M87.957 73.9007L71.957 64.6631L87.957 55.4255L103.957 64.6631L87.957 73.9007Z" fill="#236FFF"/>
<path fill-rule="evenodd" clip-rule="evenodd" d="M87.957 73.9007L71.957 64.6631L87.957 55.4255L103.957 64.6631L87.957 73.9007Z" fill="#205BBC" fill-opacity="0.821786"/>
<path fill-rule="evenodd" clip-rule="evenodd" d="M103.957 64.6631V83.1383L87.957 92.3759L87.957 73.9007L103.957 64.6631Z" fill="#0194EE"/>
<path fill-rule="evenodd" clip-rule="evenodd" d="M71.957 64.6631V83.1383L87.957 92.3759L87.957 73.9007L71.957 64.6631Z" fill="#0ACDC4"/>
<path fill-rule="evenodd" clip-rule="evenodd" d="M71.957 64.6631V83.1383L87.957 92.3759L87.957 73.9007L71.957 64.6631Z" fill="#3DCE9D" fill-opacity="0.6431"/>
<path fill-rule="evenodd" clip-rule="evenodd" d="M88.0859 36.9752L72.0859 27.7376L88.0859 18.5L104.086 27.7376L88.0859 36.9752Z" fill="#236FFF"/>
<path fill-rule="evenodd" clip-rule="evenodd" d="M88.0859 36.9752L72.0859 27.7376L88.0859 18.5L104.086 27.7376L88.0859 36.9752Z" fill="#205BBC" fill-opacity="0.821786"/>
<path fill-rule="evenodd" clip-rule="evenodd" d="M104.086 27.7375V46.2128L88.0859 55.4504L88.0859 36.9752L104.086 27.7375Z" fill="#0194EE"/>
<path fill-rule="evenodd" clip-rule="evenodd" d="M72.0859 27.7375V46.2128L88.0859 55.4504L88.0859 36.9752L72.0859 27.7375Z" fill="#0ACDC4"/>
<path fill-rule="evenodd" clip-rule="evenodd" d="M72.0859 27.7375V46.2128L88.0859 55.4504L88.0859 36.9752L72.0859 27.7375Z" fill="#3DCE9D" fill-opacity="0.6431"/>
<path fill-rule="evenodd" clip-rule="evenodd" d="M24.1289 73.9007L8.12891 64.6631L24.1289 55.4255L40.1289 64.6631L24.1289 73.9007Z" fill="#236FFF"/>
<path fill-rule="evenodd" clip-rule="evenodd" d="M24.1289 73.9007L8.12891 64.6631L24.1289 55.4255L40.1289 64.6631L24.1289 73.9007Z" fill="#205BBC" fill-opacity="0.821786"/>
<path fill-rule="evenodd" clip-rule="evenodd" d="M40.1289 64.6631V83.1383L24.1289 92.3759L24.1289 73.9007L40.1289 64.6631Z" fill="#0194EE"/>
<path fill-rule="evenodd" clip-rule="evenodd" d="M8.12891 64.6631V83.1383L24.1289 92.3759L24.1289 73.9007L8.12891 64.6631Z" fill="#0ACDC4"/>
<path fill-rule="evenodd" clip-rule="evenodd" d="M8.12891 64.6631V83.1383L24.1289 92.3759L24.1289 73.9007L8.12891 64.6631Z" fill="#3DCE9D" fill-opacity="0.6431"/>
<path fill-rule="evenodd" clip-rule="evenodd" d="M71.9571 64.6632L56.043 73.8513L40.1289 64.6632L56.043 37L71.9571 64.6632Z" fill="#236FFF"/>
<path fill-rule="evenodd" clip-rule="evenodd" d="M71.9571 64.6632L56.043 73.8513L40.1289 64.6632L56.043 37L71.9571 64.6632Z" fill="#205BBC" fill-opacity="0.821786"/>
<path fill-rule="evenodd" clip-rule="evenodd" d="M71.9571 64.6632L56.043 73.8513V37L71.9571 64.6632Z" fill="#0ACDC4"/>
<path fill-rule="evenodd" clip-rule="evenodd" d="M71.9571 64.6632L56.043 73.8513V37L71.9571 64.6632Z" fill="#3DCE9D" fill-opacity="0.6431"/>
</svg>
